# xmcd
#
# Track frame offsets: 
#        151
#        18285
#        43447
#        68960
#        93020
#        103459
#        123745
#        142451
#        168997
#        182154
#        211030
#        230754
#        244036
#        259964
#
# Disc length: 3762 seconds
#
# Revision: 5
# Processed by: cddbd v1.5.2PL0 Copyright (c) Steve Scherf et al.
# Submitted via: ExactAudioCopyFreeDBPlugin 1.0
#
DISCID=d70eb00e
DTITLE=Whole Lotta Blues - Whole Lotta Blues: Songs of Led Zeppelin
DYEAR=1999
DGENRE=Blues
TTITLE0=Eric Gales - Custard Pie
TTITLE1=Matthew Tutor, Eric Gales, Derek Trucks- Custard Pie (Revisite
TTITLE1=d)
TTITLE2=Alvin Youngblood Hart- Heartbreaker - Alvin Youngblood Hart
TTITLE3=Otis Rush and Eric Gales- I Can't Quit You Baby
TTITLE4=Magic Slim, Billy Branch, James Cotton- When The Levee Breaks 
TTITLE4=(Pt. 1)
TTITLE5=Magic Slim and James Cotton- When The Levee Breaks (Pt. 2)
TTITLE6=Chris Thomas King- Hey, Hey (What Can I Do) - Chris Thomas Kin
TTITLE6=g
TTITLE7=Clarence Gatemouth Brown- Rock N' Roll
TTITLE8=Joe Lewis Walker and James Cotton- You Need Love
TTITLE9=Otis Clay-'Since I've Been Loving You
TTITLE10=Carl Weathersby- Good Times, Bad Times - Carl Weathersby
TTITLE11=Robert Lockwood Jr- Bring It On Home (Pt 1) - Robert Lockwood
TTITLE11=Jr
TTITLE12=Robert Lockwood Jr- Bring It On Home (Pt 2) - Robert Lockwood
TTITLE12=Jr
TTITLE13=Eric Gales- ''Trampled Underfoot''
EXTD=
EXTT0=
EXTT1=
EXTT2=
EXTT3=
EXTT4=
EXTT5=
EXTT6=
EXTT7=
EXTT8=
EXTT9=
EXTT10=
EXTT11=
EXTT12=
EXTT13=
PLAYORDER=
